<?xml version="1.0" ?><!DOCTYPE svg  PUBLIC '-//W3C//DTD SVG 1.1//EN'  'http://www.w3.org/Graphics/SVG/1.1/DTD/svg11.dtd'><svg enable-background="new 0 0 48 48" height="48px" id="Layer_1" version="1.1" viewBox="0 0 48 48" width="48px" xml:space="preserve" xmlns="http://www.w3.org/2000/svg" xmlns:xlink="http://www.w3.org/1999/xlink"><g id="Layer_4"><path d="M24,0C10.745,0,0,10.745,0,24s10.745,24,24,24s24-10.745,24-24S37.255,0,24,0z M28.979,36.098l-0.002-0.002   l-0.002,0.002L18.049,25.17l-0.008,0.008l-1.16-1.161l0.007-0.007l-0.007-0.007l0.517-0.518l-0.005-0.005l11.578-11.578   l0.006,0.005l0.004-0.005l1.07,1.069l-0.004,0.004l1.064,1.064l-9.955,9.956l9.963,9.963L28.979,36.098z" fill="#241F20"/></g></svg>