<?xml version="1.0" ?><!DOCTYPE svg  PUBLIC '-//W3C//DTD SVG 1.1//EN'  'http://www.w3.org/Graphics/SVG/1.1/DTD/svg11.dtd'><svg enable-background="new 0 0 48 48" height="48px" id="Layer_1" version="1.1" viewBox="0 0 48 48" width="48px" xml:space="preserve" xmlns="http://www.w3.org/2000/svg" xmlns:xlink="http://www.w3.org/1999/xlink"><g id="Layer_4"><polygon fill="#241F20" points="28.98,11.902 30.051,12.972 30.047,12.976 31.111,14.04 21.156,23.996 31.119,33.959    28.979,36.098 28.977,36.096 28.975,36.098 18.049,25.17 18.041,25.178 16.881,24.017 16.888,24.01 16.881,24.003 17.398,23.485    17.393,23.48 28.971,11.902 28.977,11.907  "/><path d="M24,0C10.745,0,0,10.745,0,24s10.745,24,24,24s24-10.745,24-24S37.255,0,24,0z M24,44   C12.954,44,4,35.046,4,24S12.954,4,24,4s20,8.954,20,20S35.046,44,24,44z" fill="#241F20"/></g></svg>