<svg width="26" height="26" viewBox="0 0 26 26" fill="none" xmlns="http://www.w3.org/2000/svg">
<path d="M12.9991 0C9.5527 0.0038408 6.24856 1.37452 3.81159 3.81132C1.37462 6.24812 0.00384107 9.55203 0 12.9982L0 25.0931C0 25.3336 0.0955584 25.5643 0.265654 25.7344C0.435749 25.9044 0.666447 26 0.906998 26H12.9991C16.4471 26 19.754 24.6304 22.1921 22.1924C24.6303 19.7544 26 16.4478 26 13C26 9.55219 24.6303 6.24558 22.1921 3.80761C19.754 1.36964 16.4471 0 12.9991 0V0ZM8.68178 14.0502C8.47369 14.0502 8.27028 13.9885 8.09726 13.8729C7.92424 13.7573 7.78939 13.593 7.70975 13.4008C7.63012 13.2086 7.60929 12.997 7.64988 12.7929C7.69048 12.5889 7.79068 12.4014 7.93782 12.2543C8.08497 12.1071 8.27244 12.007 8.47653 11.9664C8.68062 11.9258 8.89216 11.9466 9.08441 12.0262C9.27666 12.1059 9.44098 12.2407 9.55659 12.4137C9.6722 12.5867 9.7339 12.7901 9.7339 12.9982C9.7339 13.2772 9.62305 13.5448 9.42574 13.7421C9.22843 13.9394 8.96082 14.0502 8.68178 14.0502ZM12.9991 14.0502C12.791 14.0502 12.5876 13.9885 12.4146 13.8729C12.2415 13.7573 12.1067 13.593 12.0271 13.4008C11.9474 13.2086 11.9266 12.997 11.9672 12.7929C12.0078 12.5889 12.108 12.4014 12.2551 12.2543C12.4023 12.1071 12.5897 12.007 12.7938 11.9664C12.9979 11.9258 13.2095 11.9466 13.4017 12.0262C13.594 12.1059 13.7583 12.2407 13.8739 12.4137C13.9895 12.5867 14.0512 12.7901 14.0512 12.9982C14.0512 13.2772 13.9404 13.5448 13.7431 13.7421C13.5457 13.9394 13.2781 14.0502 12.9991 14.0502ZM17.3164 14.0502C17.1083 14.0502 16.9049 13.9885 16.7319 13.8729C16.5589 13.7573 16.424 13.593 16.3444 13.4008C16.2647 13.2086 16.2439 12.997 16.2845 12.7929C16.3251 12.5889 16.4253 12.4014 16.5724 12.2543C16.7196 12.1071 16.9071 12.007 17.1111 11.9664C17.3152 11.9258 17.5268 11.9466 17.719 12.0262C17.9113 12.1059 18.0756 12.2407 18.1912 12.4137C18.3068 12.5867 18.3685 12.7901 18.3685 12.9982C18.3685 13.2766 18.2582 13.5436 18.0616 13.7408C17.8651 13.938 17.5984 14.0493 17.32 14.0502H17.3164Z" fill="black"/>
</svg>
