<svg width="26" height="26" viewBox="0 0 26 26" fill="none" xmlns="http://www.w3.org/2000/svg">
<path d="M25.5927 7.83457L13.4545 0.141445C13.3092 0.0490437 13.1409 0 12.9691 0C12.7972 0 12.6289 0.0490437 12.4836 0.141445L0.425455 7.8309C0.295042 7.91341 0.187584 8.02793 0.113166 8.16371C0.0387471 8.29949 -0.000192598 8.45209 7.16271e-07 8.60717V25.0846C7.16271e-07 25.3274 0.0957795 25.5602 0.266267 25.7319C0.436754 25.9036 0.667984 26 0.90909 26H9.87271C10.1138 26 10.345 25.9036 10.5155 25.7319C10.686 25.5602 10.7818 25.3274 10.7818 25.0846V18.23C10.7818 17.6352 11.0165 17.0647 11.4342 16.6441C11.8518 16.2235 12.4184 15.9872 13.0091 15.9872C13.5998 15.9872 14.1663 16.2235 14.584 16.6441C15.0017 17.0647 15.2363 17.6352 15.2363 18.23V25.0773C15.2354 25.1981 15.2582 25.3179 15.3034 25.4298C15.3487 25.5417 15.4155 25.6435 15.5 25.7293C15.5845 25.8151 15.6851 25.8832 15.7958 25.9296C15.9066 25.9761 16.0254 26 16.1454 26H25.0909C25.332 26 25.5632 25.9036 25.7337 25.7319C25.9042 25.5602 26 25.3274 26 25.0846V8.60717C26.0015 8.4544 25.965 8.30367 25.8939 8.16872C25.8228 8.03377 25.7192 7.91889 25.5927 7.83457Z" fill="black"/>
</svg>
