<svg width="59" height="27" viewBox="0 0 59 27" fill="none" xmlns="http://www.w3.org/2000/svg">
<path d="M9.61523 18.6201V20H2.83887V18.6201H9.61523ZM3.18164 7.20312V20H1.48535V7.20312H3.18164ZM8.71875 12.7051V14.085H2.83887V12.7051H8.71875ZM9.52734 7.20312V8.5918H2.83887V7.20312H9.52734ZM21.5596 7.20312V20H19.8545L13.4121 10.1299V20H11.7158V7.20312H13.4121L19.8809 17.0996V7.20312H21.5596ZM34.0225 13.6279V18.3125C33.8643 18.5469 33.6123 18.8105 33.2666 19.1035C32.9209 19.3906 32.4434 19.6426 31.834 19.8594C31.2305 20.0703 30.4512 20.1758 29.4961 20.1758C28.7168 20.1758 27.999 20.041 27.3428 19.7715C26.6924 19.4961 26.127 19.0977 25.6465 18.5762C25.1719 18.0488 24.8027 17.4102 24.5391 16.6602C24.2812 15.9043 24.1523 15.0488 24.1523 14.0938V13.1006C24.1523 12.1455 24.2637 11.293 24.4863 10.543C24.7148 9.79297 25.0488 9.15723 25.4883 8.63574C25.9277 8.1084 26.4668 7.70996 27.1055 7.44043C27.7441 7.16504 28.4766 7.02734 29.3027 7.02734C30.2812 7.02734 31.0986 7.19727 31.7549 7.53711C32.417 7.87109 32.9326 8.33398 33.3018 8.92578C33.6768 9.51758 33.917 10.1914 34.0225 10.9473H32.3262C32.25 10.4844 32.0977 10.0625 31.8691 9.68164C31.6465 9.30078 31.3271 8.99609 30.9111 8.76758C30.4951 8.5332 29.959 8.41602 29.3027 8.41602C28.7109 8.41602 28.1982 8.52441 27.7646 8.74121C27.3311 8.95801 26.9736 9.26855 26.6924 9.67285C26.4111 10.0771 26.2002 10.5664 26.0596 11.1406C25.9248 11.7148 25.8574 12.3623 25.8574 13.083V14.0938C25.8574 14.832 25.9424 15.4912 26.1123 16.0713C26.2881 16.6514 26.5371 17.1465 26.8594 17.5566C27.1816 17.9609 27.5654 18.2686 28.0107 18.4795C28.4619 18.6904 28.96 18.7959 29.5049 18.7959C30.1084 18.7959 30.5977 18.7461 30.9727 18.6465C31.3477 18.541 31.6406 18.418 31.8516 18.2773C32.0625 18.1309 32.2236 17.9932 32.335 17.8643V14.999H29.373V13.6279H34.0225Z" fill="black"/>
<path d="M58 11L52 17L46 11" stroke="#B8B8B8" stroke-width="2" stroke-linecap="round"/>
</svg>
