<svg width="25" height="26" viewBox="0 0 25 26" fill="none" xmlns="http://www.w3.org/2000/svg">
<path d="M23.4327 14.6182L22.4339 13.9309V13.88C22.4633 13.5564 22.478 13.2691 22.478 13C22.478 12.7309 22.478 12.4436 22.4339 12.12V12.0691L23.4327 11.3818C24.0384 10.9603 24.4637 10.3302 24.6253 9.61469C24.7869 8.89916 24.6733 8.14966 24.3065 7.51273L23.1316 5.48727C22.758 4.85371 22.1591 4.38105 21.4521 4.16179C20.7452 3.94253 19.981 3.99246 19.3093 4.30182L18.1857 4.82545L18.1416 4.79636C17.6644 4.46896 17.1595 4.18304 16.6326 3.94182L16.5848 3.92L16.482 2.68727C16.4172 1.9579 16.0805 1.27857 15.5374 0.781744C14.9943 0.28492 14.2839 0.00622346 13.5446 0L11.169 0C10.4297 0.00622346 9.71922 0.28492 9.17616 0.781744C8.63308 1.27857 8.29633 1.9579 8.23155 2.68727L8.12507 3.97455L8.07734 4C7.56519 4.23516 7.0739 4.5125 6.60863 4.82909L6.56457 4.85818L5.37492 4.30545C4.70564 4.00103 3.94612 3.95337 3.24339 4.1717C2.54067 4.39002 1.94474 4.8588 1.57096 5.48727L0.392327 7.51273C0.0256057 8.14966 -0.0880611 8.89916 0.0735488 9.61469C0.235159 10.3302 0.660425 10.9603 1.26621 11.3818L2.36774 12.1382V12.1891C2.34571 12.48 2.33102 12.7455 2.33102 12.9964C2.33102 13.2473 2.33102 13.5127 2.36774 13.8036V13.8545L1.26621 14.6109C0.659208 15.0332 0.233193 15.6646 0.07156 16.3816C-0.0900733 17.0985 0.024313 17.8494 0.392327 18.4873L1.57096 20.5091C1.94455 21.1427 2.54345 21.6153 3.25041 21.8346C3.95738 22.0538 4.72153 22.0039 5.39327 21.6945L6.58293 21.1382L6.62699 21.1673C7.08613 21.4855 7.57126 21.7653 8.07734 22.0036L8.12507 22.0255L8.23155 23.3127C8.29633 24.0421 8.63308 24.7214 9.17616 25.2183C9.71922 25.7151 10.4297 25.9938 11.169 26H13.5262C14.2655 25.9938 14.976 25.7151 15.519 25.2183C16.0621 24.7214 16.3989 24.0421 16.4637 23.3127L16.5665 22.08L16.6142 22.0582C17.1411 21.8167 17.646 21.5308 18.1233 21.2036L18.1674 21.1745L19.2909 21.6982C19.9647 22.0128 20.7331 22.0656 21.4443 21.8461C22.1555 21.6266 22.7576 21.1508 23.1316 20.5127L24.3102 18.4909C24.6768 17.853 24.79 17.1026 24.6277 16.3865C24.4654 15.6703 24.0393 15.0398 23.4327 14.6182ZM15.5457 13C15.5457 13.6156 15.3614 14.2175 15.016 14.7293C14.6707 15.2412 14.1798 15.6402 13.6055 15.8758C13.0311 16.1114 12.3992 16.173 11.7895 16.0529C11.1798 15.9328 10.6198 15.6364 10.1802 15.201C9.74066 14.7657 9.44131 14.2111 9.32004 13.6073C9.19876 13.0035 9.261 12.3776 9.49889 11.8088C9.73678 11.24 10.1396 10.7539 10.6565 10.4119C11.1734 10.0698 11.781 9.88727 12.4027 9.88727C13.236 9.88824 14.0348 10.2165 14.6241 10.8C15.2133 11.3836 15.5447 12.1747 15.5457 13Z" fill="black"/>
</svg>
